<svg width="858" height="301" xmlns="http://www.w3.org/2000/svg"><g transform="translate(5,5) scale(1)"><rect width="264" height="264" x="-4" y="-4" stroke="none" fill="black"/><g transform="translate(0,0)"><rect width="32" height="32" x="0" y="0" stroke="#909090" fill="#909090" /><rect width="16" height="16" x="8" y="8" fill="none" stroke="black"/></g><g transform="translate(32,0)"><rect width="32" height="32" x="0" y="0" stroke="#909090" fill="#909090" /><rect width="16" height="16" x="8" y="8" fill="none" stroke="black"/></g><g transform="translate(64,0)"><rect width="32" height="32" x="0" y="0" stroke="#909090" fill="#909090" /><rect width="16" height="16" x="8" y="8" fill="none" stroke="black"/></g><g transform="translate(96,0)"><rect width="32" height="32" x="0" y="0" stroke="#909090" fill="#909090" /><rect width="16" height="16" x="8" y="8" fill="none" stroke="black"/></g><g transform="translate(128,0)"><rect width="32" height="32" x="0" y="0" stroke="#909090" fill="#909090" /><rect width="16" height="16" x="8" y="8" fill="none" stroke="black"/></g><g transform="translate(160,0)"><rect width="32" height="32" x="0" y="0" stroke="#909090" fill="#909090" /><rect width="16" height="16" x="8" y="8" fill="none" stroke="black"/></g><g transform="translate(192,0)"><rect width="32" height="32" x="0" y="0" stroke="#909090" fill="#909090" /><rect width="16" height="16" x="8" y="8" fill="none" stroke="black"/></g><g transform="translate(224,0)"><rect width="32" height="32" x="0" y="0" stroke="#909090" fill="#909090" /><rect width="16" height="16" x="8" y="8" fill="none" stroke="black"/></g><g transform="translate(0,32)"><rect width="32" height="32" x="0" y="0" stroke="#909090" fill="#909090" /><rect width="16" height="16" x="8" y="8" fill="none" stroke="black"/></g><g transform="translate(32,32)"><rect width="32" height="32" x="0" y="0" stroke="#909090" fill="#909090" /><rect width="16" height="16" x="8" y="8" fill="none" stroke="black"/></g><g transform="translate(64,32)"><rect width="32" height="32" x="0" y="0" stroke="#909090" fill="#909090" /><rect width="16" height="16" x="8" y="8" fill="none" stroke="black"/></g><g transform="translate(96,32)"><rect width="32" height="32" x="0" y="0" stroke="#909090" fill="#909090" /><rect width="16" height="16" x="8" y="8" fill="none" stroke="black"/></g><g transform="translate(128,32)"><rect width="32" height="32" x="0" y="0" stroke="#909090" fill="#909090" /><rect width="16" height="16" x="8" y="8" fill="none" stroke="black"/></g><g transform="translate(160,32)"><rect width="32" height="32" x="0" y="0" stroke="#909090" fill="#909090" /><rect width="16" height="16" x="8" y="8" fill="none" stroke="black"/></g><g transform="translate(192,32)"><rect width="32" height="32" x="0" y="0" stroke="#909090" fill="#909090" /><rect width="16" height="16" x="8" y="8" fill="none" stroke="black"/></g><g transform="translate(224,32)"><rect width="32" height="32" x="0" y="0" stroke="#909090" fill="#909090" /><rect width="16" height="16" x="8" y="8" fill="none" stroke="black"/></g><g transform="translate(0,64)"><rect width="32" height="32" x="0" y="0" stroke="#909090" fill="#909090" /><rect width="16" height="16" x="8" y="8" fill="none" stroke="black"/></g><g transform="translate(32,64)"><rect width="32" height="32" x="0" y="0" stroke="#909090" fill="#909090" /><rect width="16" height="16" x="8" y="8" fill="none" stroke="black"/></g><g transform="translate(64,64)"><rect width="32" height="32" x="0" y="0" stroke="#909090" fill="#909090" /><rect width="16" height="16" x="8" y="8" fill="none" stroke="black"/></g><g transform="translate(96,64)"><rect width="32" height="32" x="0" y="0" stroke="#909090" fill="#909090" /><rect width="16" height="16" x="8" y="8" fill="none" stroke="black"/></g><g transform="translate(128,64)"><rect width="32" height="32" x="0" y="0" stroke="#909090" fill="#909090" /><rect width="16" height="16" x="8" y="8" fill="none" stroke="black"/></g><g transform="translate(160,64)"><rect width="32" height="32" x="0" y="0" stroke="#909090" fill="#909090" /><rect width="16" height="16" x="8" y="8" fill="none" stroke="black"/></g><g transform="translate(192,64)"><rect width="32" height="32" x="0" y="0" stroke="#909090" fill="#909090" /><rect width="16" height="16" x="8" y="8" fill="none" stroke="black"/></g><g transform="translate(224,64)"><rect width="32" height="32" x="0" y="0" stroke="#909090" fill="#909090" /><rect width="16" height="16" x="8" y="8" fill="none" stroke="black"/></g><g transform="translate(0,96)"><rect width="32" height="32" x="0" y="0" stroke="#909090" fill="#909090" /><rect width="16" height="16" x="8" y="8" fill="none" stroke="black"/></g><g transform="translate(32,96)"><rect width="32" height="32" x="0" y="0" stroke="#909090" fill="#909090" /><rect width="16" height="16" x="8" y="8" fill="none" stroke="black"/></g><g transform="translate(64,96)"><rect width="32" height="32" x="0" y="0" stroke="#909090" fill="#909090" /><rect width="16" height="16" x="8" y="8" fill="none" stroke="black"/></g><g transform="translate(96,96)"><rect width="32" height="32" x="0" y="0" stroke="#909090" fill="#909090" /><rect width="16" height="16" x="8" y="8" fill="none" stroke="black"/></g><g transform="translate(128,96)"><rect width="32" height="32" x="0" y="0" stroke="#909090" fill="#909090" /><rect width="16" height="16" x="8" y="8" fill="none" stroke="black"/></g><g transform="translate(160,96)"><rect width="32" height="32" x="0" y="0" stroke="#909090" fill="#909090" /><rect width="16" height="16" x="8" y="8" fill="none" stroke="black"/></g><g transform="translate(192,96)"><rect width="32" height="32" x="0" y="0" stroke="#909090" fill="#909090" /><rect width="16" height="16" x="8" y="8" fill="none" stroke="black"/></g><g transform="translate(224,96)"><rect width="32" height="32" x="0" y="0" stroke="#909090" fill="#909090" /><rect width="16" height="16" x="8" y="8" fill="none" stroke="black"/></g><g transform="translate(0,128)"><rect width="32" height="32" x="0" y="0" stroke="#909090" fill="#909090" /><rect width="16" height="16" x="8" y="8" fill="none" stroke="black"/></g><g transform="translate(32,128)"><rect width="32" height="32" x="0" y="0" stroke="#909090" fill="#909090" /><rect width="16" height="16" x="8" y="8" fill="none" stroke="black"/></g><g transform="translate(64,128)"><rect width="32" height="32" x="0" y="0" stroke="#909090" fill="#909090" /><rect width="16" height="16" x="8" y="8" fill="none" stroke="black"/></g><g transform="translate(96,128)"><rect width="32" height="32" x="0" y="0" stroke="#909090" fill="#909090" /><rect width="16" height="16" x="8" y="8" fill="none" stroke="black"/></g><g transform="translate(128,128)"><rect width="32" height="32" x="0" y="0" stroke="#909090" fill="#909090" /><rect width="16" height="16" x="8" y="8" fill="none" stroke="black"/></g><g transform="translate(160,128)"><rect width="32" height="32" x="0" y="0" stroke="#909090" fill="#909090" /><rect width="16" height="16" x="8" y="8" fill="none" stroke="black"/></g><g transform="translate(192,128)"><rect width="32" height="32" x="0" y="0" stroke="#909090" fill="#909090" /><rect width="16" height="16" x="8" y="8" fill="none" stroke="black"/></g><g transform="translate(224,128)"><rect width="32" height="32" x="0" y="0" stroke="#909090" fill="#909090" /><rect width="16" height="16" x="8" y="8" fill="none" stroke="black"/></g><g transform="translate(0,160)"><rect width="32" height="32" x="0" y="0" stroke="#909090" fill="#909090" /><rect width="16" height="16" x="8" y="8" fill="none" stroke="black"/></g><g transform="translate(32,160)"><rect width="32" height="32" x="0" y="0" stroke="#909090" fill="#909090" /><rect width="16" height="16" x="8" y="8" fill="none" stroke="black"/></g><g transform="translate(64,160)"><rect width="32" height="32" x="0" y="0" stroke="#909090" fill="#909090" /><rect width="16" height="16" x="8" y="8" fill="none" stroke="black"/></g><g transform="translate(96,160)"><rect width="32" height="32" x="0" y="0" stroke="#909090" fill="#909090" /><rect width="16" height="16" x="8" y="8" fill="none" stroke="black"/></g><g transform="translate(128,160)"><rect width="32" height="32" x="0" y="0" stroke="#909090" fill="#909090" /><rect width="16" height="16" x="8" y="8" fill="none" stroke="black"/></g><g transform="translate(160,160)"><rect width="32" height="32" x="0" y="0" stroke="#909090" fill="#909090" /><rect width="16" height="16" x="8" y="8" fill="none" stroke="black"/></g><g transform="translate(192,160)"><rect width="32" height="32" x="0" y="0" stroke="#909090" fill="#909090" /><rect width="16" height="16" x="8" y="8" fill="none" stroke="black"/></g><g transform="translate(224,160)"><rect width="32" height="32" x="0" y="0" stroke="#909090" fill="#909090" /><rect width="16" height="16" x="8" y="8" fill="none" stroke="black"/></g><g transform="translate(0,192)"><rect width="32" height="32" x="0" y="0" stroke="#909090" fill="#909090" /><rect width="16" height="16" x="8" y="8" fill="none" stroke="black"/></g><g transform="translate(32,192)"><rect width="32" height="32" x="0" y="0" stroke="#909090" fill="#909090" /><rect width="16" height="16" x="8" y="8" fill="none" stroke="black"/></g><g transform="translate(64,192)"><rect width="32" height="32" x="0" y="0" stroke="#909090" fill="#909090" /><rect width="16" height="16" x="8" y="8" fill="none" stroke="black"/></g><g transform="translate(96,192)"><rect width="32" height="32" x="0" y="0" stroke="#909090" fill="#909090" /><rect width="16" height="16" x="8" y="8" fill="none" stroke="black"/></g><g transform="translate(128,192)"><rect width="32" height="32" x="0" y="0" stroke="#909090" fill="#909090" /><rect width="16" height="16" x="8" y="8" fill="none" stroke="black"/></g><g transform="translate(160,192)"><rect width="32" height="32" x="0" y="0" stroke="#909090" fill="#909090" /><rect width="16" height="16" x="8" y="8" fill="none" stroke="black"/></g><g transform="translate(192,192)"><rect width="32" height="32" x="0" y="0" stroke="#909090" fill="#909090" /><rect width="16" height="16" x="8" y="8" fill="none" stroke="black"/></g><g transform="translate(224,192)"><rect width="32" height="32" x="0" y="0" stroke="#909090" fill="#909090" /><rect width="16" height="16" x="8" y="8" fill="none" stroke="black"/></g><g transform="translate(0,224)"><rect width="32" height="32" x="0" y="0" stroke="#909090" fill="#909090" /><rect width="16" height="16" x="8" y="8" fill="none" stroke="black"/></g><g transform="translate(32,224)"><rect width="32" height="32" x="0" y="0" stroke="#909090" fill="#909090" /><rect width="16" height="16" x="8" y="8" fill="none" stroke="black"/></g><g transform="translate(64,224)"><rect width="32" height="32" x="0" y="0" stroke="#909090" fill="#909090" /><rect width="16" height="16" x="8" y="8" fill="none" stroke="black"/></g><g transform="translate(96,224)"><rect width="32" height="32" x="0" y="0" stroke="#909090" fill="#909090" /><rect width="16" height="16" x="8" y="8" fill="none" stroke="black"/></g><g transform="translate(128,224)"><rect width="32" height="32" x="0" y="0" stroke="#909090" fill="#909090" /><rect width="16" height="16" x="8" y="8" fill="none" stroke="black"/></g><g transform="translate(160,224)"><rect width="32" height="32" x="0" y="0" stroke="#909090" fill="#909090" /><rect width="16" height="16" x="8" y="8" fill="none" stroke="black"/></g><g transform="translate(192,224)"><rect width="32" height="32" x="0" y="0" stroke="#909090" fill="#909090" /><rect width="16" height="16" x="8" y="8" fill="none" stroke="black"/></g><g transform="translate(224,224)"><rect width="32" height="32" x="0" y="0" stroke="#909090" fill="#909090" /><rect width="16" height="16" x="8" y="8" fill="none" stroke="black"/></g><g transform="translate(0,0) rotate(0)"><rect width="28" height="28" x="2" y="2" stroke="white" fill="white"/><text x="16" y="16" dominant-baseline="central" text-anchor="middle" fill="black" style="font-size: 28">A</text></g><g transform="translate(64,0) rotate(0)"><rect width="60" height="28" x="2" y="2" stroke="white" fill="white"/><text x="32" y="16" dominant-baseline="central" text-anchor="middle" fill="black" style="font-size: 28">B</text></g><g transform="translate(160,0) rotate(0)"><rect width="92" height="28" x="2" y="2" stroke="white" fill="white"/><text x="48" y="16" dominant-baseline="central" text-anchor="middle" fill="black" style="font-size: 28">C</text></g><g transform="translate(0,96) rotate(0)"><rect width="124" height="28" x="2" y="2" stroke="green" fill="green"/><text x="64" y="16" dominant-baseline="central" text-anchor="middle" fill="black" style="font-size: 28">D</text></g><g transform="translate(0,192) rotate(0)"><rect width="156" height="28" x="2" y="2" stroke="green" fill="green"/><text x="78" y="16" dominant-baseline="central" text-anchor="middle" fill="black" style="font-size: 28">E</text></g><text x="128" y="276" dominant-baseline="central" text-anchor="middle" fill="black" style="font-size: 28">1 High</text></g><g transform="translate(301,5) scale(1)"><rect width="264" height="264" x="-4" y="-4" stroke="none" fill="black"/><g transform="translate(0,0)"><rect width="32" height="32" x="0" y="0" stroke="#909090" fill="#909090" /><rect width="16" height="16" x="8" y="8" fill="none" stroke="black"/></g><g transform="translate(32,0)"><rect width="32" height="32" x="0" y="0" stroke="#909090" fill="#909090" /><rect width="16" height="16" x="8" y="8" fill="none" stroke="black"/></g><g transform="translate(64,0)"><rect width="32" height="32" x="0" y="0" stroke="#909090" fill="#909090" /><rect width="16" height="16" x="8" y="8" fill="none" stroke="black"/></g><g transform="translate(96,0)"><rect width="32" height="32" x="0" y="0" stroke="#909090" fill="#909090" /><rect width="16" height="16" x="8" y="8" fill="none" stroke="black"/></g><g transform="translate(128,0)"><rect width="32" height="32" x="0" y="0" stroke="#909090" fill="#909090" /><rect width="16" height="16" x="8" y="8" fill="none" stroke="black"/></g><g transform="translate(160,0)"><rect width="32" height="32" x="0" y="0" stroke="#909090" fill="#909090" /><rect width="16" height="16" x="8" y="8" fill="none" stroke="black"/></g><g transform="translate(192,0)"><rect width="32" height="32" x="0" y="0" stroke="#909090" fill="#909090" /><rect width="16" height="16" x="8" y="8" fill="none" stroke="black"/></g><g transform="translate(224,0)"><rect width="32" height="32" x="0" y="0" stroke="#909090" fill="#909090" /><rect width="16" height="16" x="8" y="8" fill="none" stroke="black"/></g><g transform="translate(0,32)"><rect width="32" height="32" x="0" y="0" stroke="#909090" fill="#909090" /><rect width="16" height="16" x="8" y="8" fill="none" stroke="black"/></g><g transform="translate(32,32)"><rect width="32" height="32" x="0" y="0" stroke="#909090" fill="#909090" /><rect width="16" height="16" x="8" y="8" fill="none" stroke="black"/></g><g transform="translate(64,32)"><rect width="32" height="32" x="0" y="0" stroke="#909090" fill="#909090" /><rect width="16" height="16" x="8" y="8" fill="none" stroke="black"/></g><g transform="translate(96,32)"><rect width="32" height="32" x="0" y="0" stroke="#909090" fill="#909090" /><rect width="16" height="16" x="8" y="8" fill="none" stroke="black"/></g><g transform="translate(128,32)"><rect width="32" height="32" x="0" y="0" stroke="#909090" fill="#909090" /><rect width="16" height="16" x="8" y="8" fill="none" stroke="black"/></g><g transform="translate(160,32)"><rect width="32" height="32" x="0" y="0" stroke="#909090" fill="#909090" /><rect width="16" height="16" x="8" y="8" fill="none" stroke="black"/></g><g transform="translate(192,32)"><rect width="32" height="32" x="0" y="0" stroke="#909090" fill="#909090" /><rect width="16" height="16" x="8" y="8" fill="none" stroke="black"/></g><g transform="translate(224,32)"><rect width="32" height="32" x="0" y="0" stroke="#909090" fill="#909090" /><rect width="16" height="16" x="8" y="8" fill="none" stroke="black"/></g><g transform="translate(0,64)"><rect width="32" height="32" x="0" y="0" stroke="#909090" fill="#909090" /><rect width="16" height="16" x="8" y="8" fill="none" stroke="black"/></g><g transform="translate(32,64)"><rect width="32" height="32" x="0" y="0" stroke="#909090" fill="#909090" /><rect width="16" height="16" x="8" y="8" fill="none" stroke="black"/></g><g transform="translate(64,64)"><rect width="32" height="32" x="0" y="0" stroke="#909090" fill="#909090" /><rect width="16" height="16" x="8" y="8" fill="none" stroke="black"/></g><g transform="translate(96,64)"><rect width="32" height="32" x="0" y="0" stroke="#909090" fill="#909090" /><rect width="16" height="16" x="8" y="8" fill="none" stroke="black"/></g><g transform="translate(128,64)"><rect width="32" height="32" x="0" y="0" stroke="#909090" fill="#909090" /><rect width="16" height="16" x="8" y="8" fill="none" stroke="black"/></g><g transform="translate(160,64)"><rect width="32" height="32" x="0" y="0" stroke="#909090" fill="#909090" /><rect width="16" height="16" x="8" y="8" fill="none" stroke="black"/></g><g transform="translate(192,64)"><rect width="32" height="32" x="0" y="0" stroke="#909090" fill="#909090" /><rect width="16" height="16" x="8" y="8" fill="none" stroke="black"/></g><g transform="translate(224,64)"><rect width="32" height="32" x="0" y="0" stroke="#909090" fill="#909090" /><rect width="16" height="16" x="8" y="8" fill="none" stroke="black"/></g><g transform="translate(0,96)"><rect width="32" height="32" x="0" y="0" stroke="#909090" fill="#909090" /><rect width="16" height="16" x="8" y="8" fill="none" stroke="black"/></g><g transform="translate(32,96)"><rect width="32" height="32" x="0" y="0" stroke="#909090" fill="#909090" /><rect width="16" height="16" x="8" y="8" fill="none" stroke="black"/></g><g transform="translate(64,96)"><rect width="32" height="32" x="0" y="0" stroke="#909090" fill="#909090" /><rect width="16" height="16" x="8" y="8" fill="none" stroke="black"/></g><g transform="translate(96,96)"><rect width="32" height="32" x="0" y="0" stroke="#909090" fill="#909090" /><rect width="16" height="16" x="8" y="8" fill="none" stroke="black"/></g><g transform="translate(128,96)"><rect width="32" height="32" x="0" y="0" stroke="#909090" fill="#909090" /><rect width="16" height="16" x="8" y="8" fill="none" stroke="black"/></g><g transform="translate(160,96)"><rect width="32" height="32" x="0" y="0" stroke="#909090" fill="#909090" /><rect width="16" height="16" x="8" y="8" fill="none" stroke="black"/></g><g transform="translate(192,96)"><rect width="32" height="32" x="0" y="0" stroke="#909090" fill="#909090" /><rect width="16" height="16" x="8" y="8" fill="none" stroke="black"/></g><g transform="translate(224,96)"><rect width="32" height="32" x="0" y="0" stroke="#909090" fill="#909090" /><rect width="16" height="16" x="8" y="8" fill="none" stroke="black"/></g><g transform="translate(0,128)"><rect width="32" height="32" x="0" y="0" stroke="#909090" fill="#909090" /><rect width="16" height="16" x="8" y="8" fill="none" stroke="black"/></g><g transform="translate(32,128)"><rect width="32" height="32" x="0" y="0" stroke="#909090" fill="#909090" /><rect width="16" height="16" x="8" y="8" fill="none" stroke="black"/></g><g transform="translate(64,128)"><rect width="32" height="32" x="0" y="0" stroke="#909090" fill="#909090" /><rect width="16" height="16" x="8" y="8" fill="none" stroke="black"/></g><g transform="translate(96,128)"><rect width="32" height="32" x="0" y="0" stroke="#909090" fill="#909090" /><rect width="16" height="16" x="8" y="8" fill="none" stroke="black"/></g><g transform="translate(128,128)"><rect width="32" height="32" x="0" y="0" stroke="#909090" fill="#909090" /><rect width="16" height="16" x="8" y="8" fill="none" stroke="black"/></g><g transform="translate(160,128)"><rect width="32" height="32" x="0" y="0" stroke="#909090" fill="#909090" /><rect width="16" height="16" x="8" y="8" fill="none" stroke="black"/></g><g transform="translate(192,128)"><rect width="32" height="32" x="0" y="0" stroke="#909090" fill="#909090" /><rect width="16" height="16" x="8" y="8" fill="none" stroke="black"/></g><g transform="translate(224,128)"><rect width="32" height="32" x="0" y="0" stroke="#909090" fill="#909090" /><rect width="16" height="16" x="8" y="8" fill="none" stroke="black"/></g><g transform="translate(0,160)"><rect width="32" height="32" x="0" y="0" stroke="#909090" fill="#909090" /><rect width="16" height="16" x="8" y="8" fill="none" stroke="black"/></g><g transform="translate(32,160)"><rect width="32" height="32" x="0" y="0" stroke="#909090" fill="#909090" /><rect width="16" height="16" x="8" y="8" fill="none" stroke="black"/></g><g transform="translate(64,160)"><rect width="32" height="32" x="0" y="0" stroke="#909090" fill="#909090" /><rect width="16" height="16" x="8" y="8" fill="none" stroke="black"/></g><g transform="translate(96,160)"><rect width="32" height="32" x="0" y="0" stroke="#909090" fill="#909090" /><rect width="16" height="16" x="8" y="8" fill="none" stroke="black"/></g><g transform="translate(128,160)"><rect width="32" height="32" x="0" y="0" stroke="#909090" fill="#909090" /><rect width="16" height="16" x="8" y="8" fill="none" stroke="black"/></g><g transform="translate(160,160)"><rect width="32" height="32" x="0" y="0" stroke="#909090" fill="#909090" /><rect width="16" height="16" x="8" y="8" fill="none" stroke="black"/></g><g transform="translate(192,160)"><rect width="32" height="32" x="0" y="0" stroke="#909090" fill="#909090" /><rect width="16" height="16" x="8" y="8" fill="none" stroke="black"/></g><g transform="translate(224,160)"><rect width="32" height="32" x="0" y="0" stroke="#909090" fill="#909090" /><rect width="16" height="16" x="8" y="8" fill="none" stroke="black"/></g><g transform="translate(0,192)"><rect width="32" height="32" x="0" y="0" stroke="#909090" fill="#909090" /><rect width="16" height="16" x="8" y="8" fill="none" stroke="black"/></g><g transform="translate(32,192)"><rect width="32" height="32" x="0" y="0" stroke="#909090" fill="#909090" /><rect width="16" height="16" x="8" y="8" fill="none" stroke="black"/></g><g transform="translate(64,192)"><rect width="32" height="32" x="0" y="0" stroke="#909090" fill="#909090" /><rect width="16" height="16" x="8" y="8" fill="none" stroke="black"/></g><g transform="translate(96,192)"><rect width="32" height="32" x="0" y="0" stroke="#909090" fill="#909090" /><rect width="16" height="16" x="8" y="8" fill="none" stroke="black"/></g><g transform="translate(128,192)"><rect width="32" height="32" x="0" y="0" stroke="#909090" fill="#909090" /><rect width="16" height="16" x="8" y="8" fill="none" stroke="black"/></g><g transform="translate(160,192)"><rect width="32" height="32" x="0" y="0" stroke="#909090" fill="#909090" /><rect width="16" height="16" x="8" y="8" fill="none" stroke="black"/></g><g transform="translate(192,192)"><rect width="32" height="32" x="0" y="0" stroke="#909090" fill="#909090" /><rect width="16" height="16" x="8" y="8" fill="none" stroke="black"/></g><g transform="translate(224,192)"><rect width="32" height="32" x="0" y="0" stroke="#909090" fill="#909090" /><rect width="16" height="16" x="8" y="8" fill="none" stroke="black"/></g><g transform="translate(0,224)"><rect width="32" height="32" x="0" y="0" stroke="#909090" fill="#909090" /><rect width="16" height="16" x="8" y="8" fill="none" stroke="black"/></g><g transform="translate(32,224)"><rect width="32" height="32" x="0" y="0" stroke="#909090" fill="#909090" /><rect width="16" height="16" x="8" y="8" fill="none" stroke="black"/></g><g transform="translate(64,224)"><rect width="32" height="32" x="0" y="0" stroke="#909090" fill="#909090" /><rect width="16" height="16" x="8" y="8" fill="none" stroke="black"/></g><g transform="translate(96,224)"><rect width="32" height="32" x="0" y="0" stroke="#909090" fill="#909090" /><rect width="16" height="16" x="8" y="8" fill="none" stroke="black"/></g><g transform="translate(128,224)"><rect width="32" height="32" x="0" y="0" stroke="#909090" fill="#909090" /><rect width="16" height="16" x="8" y="8" fill="none" stroke="black"/></g><g transform="translate(160,224)"><rect width="32" height="32" x="0" y="0" stroke="#909090" fill="#909090" /><rect width="16" height="16" x="8" y="8" fill="none" stroke="black"/></g><g transform="translate(192,224)"><rect width="32" height="32" x="0" y="0" stroke="#909090" fill="#909090" /><rect width="16" height="16" x="8" y="8" fill="none" stroke="black"/></g><g transform="translate(224,224)"><rect width="32" height="32" x="0" y="0" stroke="#909090" fill="#909090" /><rect width="16" height="16" x="8" y="8" fill="none" stroke="black"/></g><g transform="translate(0,0) rotate(0)"><rect width="60" height="60" x="2" y="2" stroke="red" fill="red"/><text x="32" y="32" dominant-baseline="central" text-anchor="middle" fill="black" style="font-size: 28">F</text></g><g transform="translate(160,0) rotate(0)"><rect width="92" height="60" x="2" y="2" stroke="blue" fill="blue"/><text x="46" y="32" dominant-baseline="central" text-anchor="middle" fill="black" style="font-size: 28">G</text></g><g transform="translate(0,96) rotate(0)"><rect width="124" height="60" x="2" y="2" stroke="blue" fill="blue"/><text x="64" y="32" dominant-baseline="central" text-anchor="middle" fill="black" style="font-size: 28">H</text></g><g transform="translate(0,192) rotate(0)"><rect width="156" height="60" x="2" y="2" stroke="blue" fill="blue"/><text x="78" y="32" dominant-baseline="central" text-anchor="middle" fill="black" style="font-size: 28">I</text></g><text x="128" y="276" dominant-baseline="central" text-anchor="middle" fill="black" style="font-size: 28">2 High</text></g><g transform="translate(597,5) scale(1)"><rect width="264" height="264" x="-4" y="-4" stroke="none" fill="black"/><g transform="translate(0,0)"><rect width="32" height="32" x="0" y="0" stroke="#909090" fill="#909090" /><rect width="16" height="16" x="8" y="8" fill="none" stroke="black"/></g><g transform="translate(32,0)"><rect width="32" height="32" x="0" y="0" stroke="#909090" fill="#909090" /><rect width="16" height="16" x="8" y="8" fill="none" stroke="black"/></g><g transform="translate(64,0)"><rect width="32" height="32" x="0" y="0" stroke="#909090" fill="#909090" /><rect width="16" height="16" x="8" y="8" fill="none" stroke="black"/></g><g transform="translate(96,0)"><rect width="32" height="32" x="0" y="0" stroke="#909090" fill="#909090" /><rect width="16" height="16" x="8" y="8" fill="none" stroke="black"/></g><g transform="translate(128,0)"><rect width="32" height="32" x="0" y="0" stroke="#909090" fill="#909090" /><rect width="16" height="16" x="8" y="8" fill="none" stroke="black"/></g><g transform="translate(160,0)"><rect width="32" height="32" x="0" y="0" stroke="#909090" fill="#909090" /><rect width="16" height="16" x="8" y="8" fill="none" stroke="black"/></g><g transform="translate(192,0)"><rect width="32" height="32" x="0" y="0" stroke="#909090" fill="#909090" /><rect width="16" height="16" x="8" y="8" fill="none" stroke="black"/></g><g transform="translate(224,0)"><rect width="32" height="32" x="0" y="0" stroke="#909090" fill="#909090" /><rect width="16" height="16" x="8" y="8" fill="none" stroke="black"/></g><g transform="translate(0,32)"><rect width="32" height="32" x="0" y="0" stroke="#909090" fill="#909090" /><rect width="16" height="16" x="8" y="8" fill="none" stroke="black"/></g><g transform="translate(32,32)"><rect width="32" height="32" x="0" y="0" stroke="#909090" fill="#909090" /><rect width="16" height="16" x="8" y="8" fill="none" stroke="black"/></g><g transform="translate(64,32)"><rect width="32" height="32" x="0" y="0" stroke="#909090" fill="#909090" /><rect width="16" height="16" x="8" y="8" fill="none" stroke="black"/></g><g transform="translate(96,32)"><rect width="32" height="32" x="0" y="0" stroke="#909090" fill="#909090" /><rect width="16" height="16" x="8" y="8" fill="none" stroke="black"/></g><g transform="translate(128,32)"><rect width="32" height="32" x="0" y="0" stroke="#909090" fill="#909090" /><rect width="16" height="16" x="8" y="8" fill="none" stroke="black"/></g><g transform="translate(160,32)"><rect width="32" height="32" x="0" y="0" stroke="#909090" fill="#909090" /><rect width="16" height="16" x="8" y="8" fill="none" stroke="black"/></g><g transform="translate(192,32)"><rect width="32" height="32" x="0" y="0" stroke="#909090" fill="#909090" /><rect width="16" height="16" x="8" y="8" fill="none" stroke="black"/></g><g transform="translate(224,32)"><rect width="32" height="32" x="0" y="0" stroke="#909090" fill="#909090" /><rect width="16" height="16" x="8" y="8" fill="none" stroke="black"/></g><g transform="translate(0,64)"><rect width="32" height="32" x="0" y="0" stroke="#909090" fill="#909090" /><rect width="16" height="16" x="8" y="8" fill="none" stroke="black"/></g><g transform="translate(32,64)"><rect width="32" height="32" x="0" y="0" stroke="#909090" fill="#909090" /><rect width="16" height="16" x="8" y="8" fill="none" stroke="black"/></g><g transform="translate(64,64)"><rect width="32" height="32" x="0" y="0" stroke="#909090" fill="#909090" /><rect width="16" height="16" x="8" y="8" fill="none" stroke="black"/></g><g transform="translate(96,64)"><rect width="32" height="32" x="0" y="0" stroke="#909090" fill="#909090" /><rect width="16" height="16" x="8" y="8" fill="none" stroke="black"/></g><g transform="translate(128,64)"><rect width="32" height="32" x="0" y="0" stroke="#909090" fill="#909090" /><rect width="16" height="16" x="8" y="8" fill="none" stroke="black"/></g><g transform="translate(160,64)"><rect width="32" height="32" x="0" y="0" stroke="#909090" fill="#909090" /><rect width="16" height="16" x="8" y="8" fill="none" stroke="black"/></g><g transform="translate(192,64)"><rect width="32" height="32" x="0" y="0" stroke="#909090" fill="#909090" /><rect width="16" height="16" x="8" y="8" fill="none" stroke="black"/></g><g transform="translate(224,64)"><rect width="32" height="32" x="0" y="0" stroke="#909090" fill="#909090" /><rect width="16" height="16" x="8" y="8" fill="none" stroke="black"/></g><g transform="translate(0,96)"><rect width="32" height="32" x="0" y="0" stroke="#909090" fill="#909090" /><rect width="16" height="16" x="8" y="8" fill="none" stroke="black"/></g><g transform="translate(32,96)"><rect width="32" height="32" x="0" y="0" stroke="#909090" fill="#909090" /><rect width="16" height="16" x="8" y="8" fill="none" stroke="black"/></g><g transform="translate(64,96)"><rect width="32" height="32" x="0" y="0" stroke="#909090" fill="#909090" /><rect width="16" height="16" x="8" y="8" fill="none" stroke="black"/></g><g transform="translate(96,96)"><rect width="32" height="32" x="0" y="0" stroke="#909090" fill="#909090" /><rect width="16" height="16" x="8" y="8" fill="none" stroke="black"/></g><g transform="translate(128,96)"><rect width="32" height="32" x="0" y="0" stroke="#909090" fill="#909090" /><rect width="16" height="16" x="8" y="8" fill="none" stroke="black"/></g><g transform="translate(160,96)"><rect width="32" height="32" x="0" y="0" stroke="#909090" fill="#909090" /><rect width="16" height="16" x="8" y="8" fill="none" stroke="black"/></g><g transform="translate(192,96)"><rect width="32" height="32" x="0" y="0" stroke="#909090" fill="#909090" /><rect width="16" height="16" x="8" y="8" fill="none" stroke="black"/></g><g transform="translate(224,96)"><rect width="32" height="32" x="0" y="0" stroke="#909090" fill="#909090" /><rect width="16" height="16" x="8" y="8" fill="none" stroke="black"/></g><g transform="translate(0,128)"><rect width="32" height="32" x="0" y="0" stroke="#909090" fill="#909090" /><rect width="16" height="16" x="8" y="8" fill="none" stroke="black"/></g><g transform="translate(32,128)"><rect width="32" height="32" x="0" y="0" stroke="#909090" fill="#909090" /><rect width="16" height="16" x="8" y="8" fill="none" stroke="black"/></g><g transform="translate(64,128)"><rect width="32" height="32" x="0" y="0" stroke="#909090" fill="#909090" /><rect width="16" height="16" x="8" y="8" fill="none" stroke="black"/></g><g transform="translate(96,128)"><rect width="32" height="32" x="0" y="0" stroke="#909090" fill="#909090" /><rect width="16" height="16" x="8" y="8" fill="none" stroke="black"/></g><g transform="translate(128,128)"><rect width="32" height="32" x="0" y="0" stroke="#909090" fill="#909090" /><rect width="16" height="16" x="8" y="8" fill="none" stroke="black"/></g><g transform="translate(160,128)"><rect width="32" height="32" x="0" y="0" stroke="#909090" fill="#909090" /><rect width="16" height="16" x="8" y="8" fill="none" stroke="black"/></g><g transform="translate(192,128)"><rect width="32" height="32" x="0" y="0" stroke="#909090" fill="#909090" /><rect width="16" height="16" x="8" y="8" fill="none" stroke="black"/></g><g transform="translate(224,128)"><rect width="32" height="32" x="0" y="0" stroke="#909090" fill="#909090" /><rect width="16" height="16" x="8" y="8" fill="none" stroke="black"/></g><g transform="translate(0,160)"><rect width="32" height="32" x="0" y="0" stroke="#909090" fill="#909090" /><rect width="16" height="16" x="8" y="8" fill="none" stroke="black"/></g><g transform="translate(32,160)"><rect width="32" height="32" x="0" y="0" stroke="#909090" fill="#909090" /><rect width="16" height="16" x="8" y="8" fill="none" stroke="black"/></g><g transform="translate(64,160)"><rect width="32" height="32" x="0" y="0" stroke="#909090" fill="#909090" /><rect width="16" height="16" x="8" y="8" fill="none" stroke="black"/></g><g transform="translate(96,160)"><rect width="32" height="32" x="0" y="0" stroke="#909090" fill="#909090" /><rect width="16" height="16" x="8" y="8" fill="none" stroke="black"/></g><g transform="translate(128,160)"><rect width="32" height="32" x="0" y="0" stroke="#909090" fill="#909090" /><rect width="16" height="16" x="8" y="8" fill="none" stroke="black"/></g><g transform="translate(160,160)"><rect width="32" height="32" x="0" y="0" stroke="#909090" fill="#909090" /><rect width="16" height="16" x="8" y="8" fill="none" stroke="black"/></g><g transform="translate(192,160)"><rect width="32" height="32" x="0" y="0" stroke="#909090" fill="#909090" /><rect width="16" height="16" x="8" y="8" fill="none" stroke="black"/></g><g transform="translate(224,160)"><rect width="32" height="32" x="0" y="0" stroke="#909090" fill="#909090" /><rect width="16" height="16" x="8" y="8" fill="none" stroke="black"/></g><g transform="translate(0,192)"><rect width="32" height="32" x="0" y="0" stroke="#909090" fill="#909090" /><rect width="16" height="16" x="8" y="8" fill="none" stroke="black"/></g><g transform="translate(32,192)"><rect width="32" height="32" x="0" y="0" stroke="#909090" fill="#909090" /><rect width="16" height="16" x="8" y="8" fill="none" stroke="black"/></g><g transform="translate(64,192)"><rect width="32" height="32" x="0" y="0" stroke="#909090" fill="#909090" /><rect width="16" height="16" x="8" y="8" fill="none" stroke="black"/></g><g transform="translate(96,192)"><rect width="32" height="32" x="0" y="0" stroke="#909090" fill="#909090" /><rect width="16" height="16" x="8" y="8" fill="none" stroke="black"/></g><g transform="translate(128,192)"><rect width="32" height="32" x="0" y="0" stroke="#909090" fill="#909090" /><rect width="16" height="16" x="8" y="8" fill="none" stroke="black"/></g><g transform="translate(160,192)"><rect width="32" height="32" x="0" y="0" stroke="#909090" fill="#909090" /><rect width="16" height="16" x="8" y="8" fill="none" stroke="black"/></g><g transform="translate(192,192)"><rect width="32" height="32" x="0" y="0" stroke="#909090" fill="#909090" /><rect width="16" height="16" x="8" y="8" fill="none" stroke="black"/></g><g transform="translate(224,192)"><rect width="32" height="32" x="0" y="0" stroke="#909090" fill="#909090" /><rect width="16" height="16" x="8" y="8" fill="none" stroke="black"/></g><g transform="translate(0,224)"><rect width="32" height="32" x="0" y="0" stroke="#909090" fill="#909090" /><rect width="16" height="16" x="8" y="8" fill="none" stroke="black"/></g><g transform="translate(32,224)"><rect width="32" height="32" x="0" y="0" stroke="#909090" fill="#909090" /><rect width="16" height="16" x="8" y="8" fill="none" stroke="black"/></g><g transform="translate(64,224)"><rect width="32" height="32" x="0" y="0" stroke="#909090" fill="#909090" /><rect width="16" height="16" x="8" y="8" fill="none" stroke="black"/></g><g transform="translate(96,224)"><rect width="32" height="32" x="0" y="0" stroke="#909090" fill="#909090" /><rect width="16" height="16" x="8" y="8" fill="none" stroke="black"/></g><g transform="translate(128,224)"><rect width="32" height="32" x="0" y="0" stroke="#909090" fill="#909090" /><rect width="16" height="16" x="8" y="8" fill="none" stroke="black"/></g><g transform="translate(160,224)"><rect width="32" height="32" x="0" y="0" stroke="#909090" fill="#909090" /><rect width="16" height="16" x="8" y="8" fill="none" stroke="black"/></g><g transform="translate(192,224)"><rect width="32" height="32" x="0" y="0" stroke="#909090" fill="#909090" /><rect width="16" height="16" x="8" y="8" fill="none" stroke="black"/></g><g transform="translate(224,224)"><rect width="32" height="32" x="0" y="0" stroke="#909090" fill="#909090" /><rect width="16" height="16" x="8" y="8" fill="none" stroke="black"/></g><g transform="translate(0,0) rotate(0)"><rect width="92" height="92" x="2" y="2" stroke="orange" fill="orange"/><text x="48" y="48" dominant-baseline="central" text-anchor="middle" fill="black" style="font-size: 28">J</text></g><g transform="translate(0,128) rotate(0)"><rect width="124" height="92" x="2" y="2" stroke="yellow" fill="yellow"/><text x="64" y="48" dominant-baseline="central" text-anchor="middle" fill="black" style="font-size: 28">K</text></g><text x="128" y="276" dominant-baseline="central" text-anchor="middle" fill="black" style="font-size: 28">3 High</text></g></svg>