<svg height="150" width="128" xmlns="http://www.w3.org/2000/svg">

<!-- COPY_BEGIN -->
<g transform="translate(0,0) scale(1)">
<text x="64" y="142" font-family="Verdana" font-size="16" fill="black" style="text-anchor:middle"></text>
<polygon points="0,0 128,0 128,128 0,128" style="fill:#808080;stroke:black;stroke-width:2" /><!-- TOP -->
<polygon transform="translate(4,4)" points="0,0 8,0 8,8 0,8" style="fill:#808080;stroke:black;stroke-width:1" />
<polygon transform="translate(20,4)" points="0,0 8,0 8,8 0,8" style="fill:#808080;stroke:black;stroke-width:1" />
<polygon transform="translate(36,4)" points="0,0 8,0 8,8 0,8" style="fill:#808080;stroke:black;stroke-width:1" />
<polygon transform="translate(52,4)" points="0,0 8,0 8,8 0,8" style="fill:#808080;stroke:black;stroke-width:1" />
<polygon transform="translate(68,4)" points="0,0 8,0 8,8 0,8" style="fill:#808080;stroke:black;stroke-width:1" />
<polygon transform="translate(84,4)" points="0,0 8,0 8,8 0,8" style="fill:#808080;stroke:black;stroke-width:1" />
<polygon transform="translate(100,4)" points="0,0 8,0 8,8 0,8" style="fill:#808080;stroke:black;stroke-width:1" />
<polygon transform="translate(116,4)" points="0,0 8,0 8,8 0,8" style="fill:#808080;stroke:black;stroke-width:1" />
<polygon transform="translate(4,20)" points="0,0 8,0 8,8 0,8" style="fill:#808080;stroke:black;stroke-width:1" />
<polygon transform="translate(20,20)" points="0,0 8,0 8,8 0,8" style="fill:#808080;stroke:black;stroke-width:1" />
<polygon transform="translate(36,20)" points="0,0 8,0 8,8 0,8" style="fill:#808080;stroke:black;stroke-width:1" />
<polygon transform="translate(52,20)" points="0,0 8,0 8,8 0,8" style="fill:#808080;stroke:black;stroke-width:1" />
<polygon transform="translate(68,20)" points="0,0 8,0 8,8 0,8" style="fill:#808080;stroke:black;stroke-width:1" />
<polygon transform="translate(84,20)" points="0,0 8,0 8,8 0,8" style="fill:#808080;stroke:black;stroke-width:1" />
<polygon transform="translate(100,20)" points="0,0 8,0 8,8 0,8" style="fill:#808080;stroke:black;stroke-width:1" />
<polygon transform="translate(116,20)" points="0,0 8,0 8,8 0,8" style="fill:#808080;stroke:black;stroke-width:1" />
<polygon transform="translate(4,36)" points="0,0 8,0 8,8 0,8" style="fill:#808080;stroke:black;stroke-width:1" />
<polygon transform="translate(20,36)" points="0,0 8,0 8,8 0,8" style="fill:#808080;stroke:black;stroke-width:1" />
<polygon transform="translate(36,36)" points="0,0 8,0 8,8 0,8" style="fill:#808080;stroke:black;stroke-width:1" />
<polygon transform="translate(52,36)" points="0,0 8,0 8,8 0,8" style="fill:#808080;stroke:black;stroke-width:1" />
<polygon transform="translate(68,36)" points="0,0 8,0 8,8 0,8" style="fill:#808080;stroke:black;stroke-width:1" />
<polygon transform="translate(84,36)" points="0,0 8,0 8,8 0,8" style="fill:#808080;stroke:black;stroke-width:1" />
<polygon transform="translate(100,36)" points="0,0 8,0 8,8 0,8" style="fill:#808080;stroke:black;stroke-width:1" />
<polygon transform="translate(116,36)" points="0,0 8,0 8,8 0,8" style="fill:#808080;stroke:black;stroke-width:1" />
<polygon transform="translate(4,52)" points="0,0 8,0 8,8 0,8" style="fill:#808080;stroke:black;stroke-width:1" />
<polygon transform="translate(20,52)" points="0,0 8,0 8,8 0,8" style="fill:#808080;stroke:black;stroke-width:1" />
<polygon transform="translate(36,52)" points="0,0 8,0 8,8 0,8" style="fill:#808080;stroke:black;stroke-width:1" />
<polygon transform="translate(52,52)" points="0,0 8,0 8,8 0,8" style="fill:#808080;stroke:black;stroke-width:1" />
<polygon transform="translate(68,52)" points="0,0 8,0 8,8 0,8" style="fill:#808080;stroke:black;stroke-width:1" />
<polygon transform="translate(84,52)" points="0,0 8,0 8,8 0,8" style="fill:#808080;stroke:black;stroke-width:1" />
<polygon transform="translate(100,52)" points="0,0 8,0 8,8 0,8" style="fill:#808080;stroke:black;stroke-width:1" />
<polygon transform="translate(116,52)" points="0,0 8,0 8,8 0,8" style="fill:#808080;stroke:black;stroke-width:1" />
<polygon transform="translate(4,68)" points="0,0 8,0 8,8 0,8" style="fill:#808080;stroke:black;stroke-width:1" />
<polygon transform="translate(20,68)" points="0,0 8,0 8,8 0,8" style="fill:#808080;stroke:black;stroke-width:1" />
<polygon transform="translate(36,68)" points="0,0 8,0 8,8 0,8" style="fill:#808080;stroke:black;stroke-width:1" />
<polygon transform="translate(52,68)" points="0,0 8,0 8,8 0,8" style="fill:#808080;stroke:black;stroke-width:1" />
<polygon transform="translate(68,68)" points="0,0 8,0 8,8 0,8" style="fill:#808080;stroke:black;stroke-width:1" />
<polygon transform="translate(84,68)" points="0,0 8,0 8,8 0,8" style="fill:#808080;stroke:black;stroke-width:1" />
<polygon transform="translate(100,68)" points="0,0 8,0 8,8 0,8" style="fill:#808080;stroke:black;stroke-width:1" />
<polygon transform="translate(116,68)" points="0,0 8,0 8,8 0,8" style="fill:#808080;stroke:black;stroke-width:1" />
<polygon transform="translate(4,84)" points="0,0 8,0 8,8 0,8" style="fill:#808080;stroke:black;stroke-width:1" />
<polygon transform="translate(20,84)" points="0,0 8,0 8,8 0,8" style="fill:#808080;stroke:black;stroke-width:1" />
<polygon transform="translate(36,84)" points="0,0 8,0 8,8 0,8" style="fill:#808080;stroke:black;stroke-width:1" />
<polygon transform="translate(52,84)" points="0,0 8,0 8,8 0,8" style="fill:#808080;stroke:black;stroke-width:1" />
<polygon transform="translate(68,84)" points="0,0 8,0 8,8 0,8" style="fill:#808080;stroke:black;stroke-width:1" />
<polygon transform="translate(84,84)" points="0,0 8,0 8,8 0,8" style="fill:#808080;stroke:black;stroke-width:1" />
<polygon transform="translate(100,84)" points="0,0 8,0 8,8 0,8" style="fill:#808080;stroke:black;stroke-width:1" />
<polygon transform="translate(116,84)" points="0,0 8,0 8,8 0,8" style="fill:#808080;stroke:black;stroke-width:1" />
<polygon transform="translate(4,100)" points="0,0 8,0 8,8 0,8" style="fill:#808080;stroke:black;stroke-width:1" />
<polygon transform="translate(20,100)" points="0,0 8,0 8,8 0,8" style="fill:#808080;stroke:black;stroke-width:1" />
<polygon transform="translate(36,100)" points="0,0 8,0 8,8 0,8" style="fill:#808080;stroke:black;stroke-width:1" />
<polygon transform="translate(52,100)" points="0,0 8,0 8,8 0,8" style="fill:#808080;stroke:black;stroke-width:1" />
<polygon transform="translate(68,100)" points="0,0 8,0 8,8 0,8" style="fill:#808080;stroke:black;stroke-width:1" />
<polygon transform="translate(84,100)" points="0,0 8,0 8,8 0,8" style="fill:#808080;stroke:black;stroke-width:1" />
<polygon transform="translate(100,100)" points="0,0 8,0 8,8 0,8" style="fill:#808080;stroke:black;stroke-width:1" />
<polygon transform="translate(116,100)" points="0,0 8,0 8,8 0,8" style="fill:#808080;stroke:black;stroke-width:1" />
<polygon transform="translate(4,116)" points="0,0 8,0 8,8 0,8" style="fill:#808080;stroke:black;stroke-width:1" />
<polygon transform="translate(20,116)" points="0,0 8,0 8,8 0,8" style="fill:#808080;stroke:black;stroke-width:1" />
<polygon transform="translate(36,116)" points="0,0 8,0 8,8 0,8" style="fill:#808080;stroke:black;stroke-width:1" />
<polygon transform="translate(52,116)" points="0,0 8,0 8,8 0,8" style="fill:#808080;stroke:black;stroke-width:1" />
<polygon transform="translate(68,116)" points="0,0 8,0 8,8 0,8" style="fill:#808080;stroke:black;stroke-width:1" />
<polygon transform="translate(84,116)" points="0,0 8,0 8,8 0,8" style="fill:#808080;stroke:black;stroke-width:1" />
<polygon transform="translate(100,116)" points="0,0 8,0 8,8 0,8" style="fill:#808080;stroke:black;stroke-width:1" />
<polygon transform="translate(116,116)" points="0,0 8,0 8,8 0,8" style="fill:#808080;stroke:black;stroke-width:1" />
<!-- 1x1 A
<polygon transform="translate(0,0)" points="1,1 15,1 15,15 1,15" style="fill:white;stroke:white;stroke-width:1" /> -->

<!-- 2x1 B
<polygon transform="translate(0,0)" points="1,1 31,1 31,15 1,15" style="fill:white;stroke:white;stroke-width:1" /> -->
<!-- 2x1_vert B
<polygon transform="translate(0,0)" points="1,1 1,31 15,31 15,1" style="fill:white;stroke:white;stroke-width:1" /> -->

<!-- 3x1 C
<polygon transform="translate(0,0)" points="1,1 47,1 47,15 1,15" style="fill:white;stroke:white;stroke-width:1" /> -->
<!-- 3x1_vert C
<polygon transform="translate(0,0)" points="1,1 1,47 15,47 15,1" style="fill:white;stroke:white;stroke-width:1" /> -->

<!-- 4x1 D
<polygon transform="translate(0,0)" points="1,1 63,1 63,15 1,15" style="fill:green;stroke:green;stroke-width:1" /> -->
<!-- 4x1_vert D
<polygon transform="translate(0,0)" points="1,1 1,63 15,63 15,1" style="fill:green;stroke:green;stroke-width:1" /> -->

<!-- 5x1 E
<polygon transform="translate(0,0)" points="1,1 79,1 79,15 1,15" style="fill:green;stroke:green;stroke-width:1" /> -->
<!-- 5x1_vert E
<polygon transform="translate(0,0)" points="1,1 1,79 15,79 15,1" style="fill:green;stroke:green;stroke-width:1" /> -->

<!-- 2x2 F
<polygon transform="translate(0,0)" points="1,1 31,1 31,31 1,31" style="fill:red;stroke:red;stroke-width:1" /> -->

<!-- 3x2 G
<polygon transform="translate(0,0)" points="1,1 47,1 47,31 1,31" style="fill:blue;stroke:blue;stroke-width:1" /> -->
<!-- 3x2_vert G
<polygon transform="translate(0,0)" points="1,1 1,47 31,47 31,1" style="fill:blue;stroke:blue;stroke-width:1" /> -->

<!-- 4x2 H
<polygon transform="translate(0,0)" points="1,1 63,1 63,31 1,31" style="fill:blue;stroke:blue;stroke-width:1" /> -->
<!-- 4x2_vert H
<polygon transform="translate(0,0)" points="1,1 1,63 31,63 31,1" style="fill:blue;stroke:blue;stroke-width:1" /> -->

<!-- 5x2 I
<polygon transform="translate(0,0)" points="1,1 79,1 79,31 1,31" style="fill:blue;stroke:blue;stroke-width:1" /> -->
<!-- 5x2_vert I
<polygon transform="translate(0,0)" points="1,1 1,79 31,79 31,1" style="fill:blue;stroke:blue;stroke-width:1" /> -->

<!-- 3x3 J
<polygon transform="translate(0,0)" points="1,1 47,1 47,47 1,47" style="fill:orange;stroke:orange;stroke-width:1" /> -->

<!-- 4x3 K
<polygon transform="translate(0,0)" points="1,1 63,1 63,47 1,47" style="fill:yellow;stroke:yellow;stroke-width:1" /> -->
<!-- 4x3_vert K
<polygon transform="translate(0,0)" points="1,1 1,63 47,63 47,1" style="fill:yellow;stroke:yellow;stroke-width:1" /> -->

<!-- possible pieces not in game -->

<!-- 6x2 L
<polygon transform="translate(0,0)" points="1,1 95,1 95,31 1,31" style="fill:purple;stroke:purple;stroke-width:1" /> -->
<!-- 6x2_vert L
<polygon transform="translate(0,0)" points="1,1 1,95 31,95 31,1" style="fill:purple;stroke:purple;stroke-width:1" /> -->

<!-- 7x2 M
<polygon transform="translate(0,0)" points="1,1 111,1 111,31 1,31" style="fill:purple;stroke:purple;stroke-width:1" /> -->
<!-- 7x2_vert M
<polygon transform="translate(0,0)" points="1,1 1,111 31,111 31,1" style="fill:purple;stroke:purple;stroke-width:1" /> -->

<!-- 8x2 N
<polygon transform="translate(0,0)" points="1,1 127,1 127,31 1,31" style="fill:purple;stroke:purple;stroke-width:1" /> -->
<!-- 8x2_vert N
<polygon transform="translate(0,0)" points="1,1 1,127 31,127 31,1" style="fill:purple;stroke:purple;stroke-width:1" /> -->

<!-- 6x1 O
<polygon transform="translate(0,0)" points="1,1 95,1 95,15 1,15" style="fill:cyan;stroke:cyan;stroke-width:1" /> -->
<!-- 6x1_vert O
<polygon transform="translate(0,0)" points="1,1 1,95 15,95 15,1" style="fill:cyan;stroke:cyan;stroke-width:1" /> -->

<!-- 7x1 P
<polygon transform="translate(0,0)" points="1,1 111,1 111,15 1,15" style="fill:cyan;stroke:cyan;stroke-width:1" /> -->
<!-- 7x1_vert P
<polygon transform="translate(0,0)" points="1,1 1,111 15,111 15,1" style="fill:cyan;stroke:cyan;stroke-width:1" /> -->

<!-- 8x1 Q
<polygon transform="translate(0,0)" points="1,1 127,1 127,15 1,15" style="fill:cyan;stroke:cyan;stroke-width:1" /> -->
<!-- 8x1_vert Q
<polygon transform="translate(0,0)" points="1,1 1,127 15,127 15,1" style="fill:cyan;stroke:cyan;stroke-width:1" /> -->

<!-- 5x3 R
<polygon transform="translate(0,0)" points="1,1 79,1 79,47 1,47" style="fill:gold;stroke:gold;stroke-width:1" /> -->
<!-- 5x3_vert R
<polygon transform="translate(0,0)" points="1,1 1,79 47,79 47,1" style="fill:gold;stroke:gold;stroke-width:1" /> -->

<!-- 6x3 S
<polygon transform="translate(0,0)" points="1,1 95,1 95,47 1,47" style="fill:gold;stroke:gold;stroke-width:1" /> -->
<!-- 6x3_vert S
<polygon transform="translate(0,0)" points="1,1 1,95 47,95 47,1" style="fill:gold;stroke:gold;stroke-width:1" /> -->

<!-- 7x3 T
<polygon transform="translate(0,0)" points="1,1 111,1 111,47 1,47" style="fill:gold;stroke:gold;stroke-width:1" /> -->
<!-- 7x3_vert T
<polygon transform="translate(0,0)" points="1,1 1,111 47,111 47,1" style="fill:gold;stroke:gold;stroke-width:1" /> -->

<!-- 8x3 U
<polygon transform="translate(0,0)" points="1,1 127,1 127,47 1,47" style="fill:gold;stroke:gold;stroke-width:1" /> -->
<!-- 8x3_vert U
<polygon transform="translate(0,0)" points="1,1 1,127 47,127 47,1" style="fill:gold;stroke:gold;stroke-width:1" /> -->

<!-- 4x4 V
<polygon transform="translate(0,0)" points="1,1 63,1 63,63 1,63" style="fill:pink;stroke:pink;stroke-width:1" /> -->

<!-- 5x4 W
<polygon transform="translate(0,0)" points="1,1 79,1 79,63 1,63" style="fill:pink;stroke:pink;stroke-width:1" /> -->
<!-- 5x4_vert W
<polygon transform="translate(0,0)" points="1,1 1,79 63,79 63,1" style="fill:pink;stroke:pink;stroke-width:1" /> -->

<!-- 6x4 X
<polygon transform="translate(0,0)" points="1,1 95,1 95,63 1,63" style="fill:pink;stroke:pink;stroke-width:1" /> -->
<!-- 6x4_vert X
<polygon transform="translate(0,0)" points="1,1 1,95 63,95 63,1" style="fill:pink;stroke:pink;stroke-width:1" /> -->

<!-- 7x4 Y
<polygon transform="translate(0,0)" points="1,1 111,1 111,63 1,63" style="fill:pink;stroke:pink;stroke-width:1" /> -->
<!-- 7x4_vert Y
<polygon transform="translate(0,0)" points="1,1 1,111 63,111 63,1" style="fill:pink;stroke:pink;stroke-width:1" /> -->

<!-- 8x4 Z
<polygon transform="translate(0,0)" points="1,1 127,1 127,63 1,63" style="fill:pink;stroke:pink;stroke-width:1" /> -->
<!-- 8x4_vert Z
<polygon transform="translate(0,0)" points="1,1 1,127 63,127 63,1" style="fill:pink;stroke:pink;stroke-width:1" /> -->

<!-- 5x5 0
<polygon transform="translate(0,0)" points="1,1 79,1 79,79 1,79" style="fill:brown;stroke:brown;stroke-width:1" /> -->

<!-- 6x5 1
<polygon transform="translate(0,0)" points="1,1 95,1 95,79 1,79" style="fill:brown;stroke:brown;stroke-width:1" /> -->
<!-- 6x5_vert 1
<polygon transform="translate(0,0)" points="1,1 1,95 79,95 79,1" style="fill:brown;stroke:brown;stroke-width:1" /> -->

<!-- 7x5 2
<polygon transform="translate(0,0)" points="1,1 111,1 111,79 1,79" style="fill:brown;stroke:brown;stroke-width:1" /> -->
<!-- 7x5_vert 2
<polygon transform="translate(0,0)" points="1,1 1,111 79,111 79,1" style="fill:brown;stroke:brown;stroke-width:1" /> -->

<!-- 8x5 3
<polygon transform="translate(0,0)" points="1,1 127,1 127,79 1,79" style="fill:brown;stroke:brown;stroke-width:1" /> -->
<!-- 8x5_vert 3
<polygon transform="translate(0,0)" points="1,1 1,127 79,127 79,1" style="fill:brown;stroke:brown;stroke-width:1" /> -->

<!-- 6x6 4
<polygon transform="translate(0,0)" points="1,1 95,1 95,95 1,95" style="fill:magenta;stroke:magenta;stroke-width:1" /> -->

<!-- 7x6 5
<polygon transform="translate(0,0)" points="1,1 111,1 111,95 1,95" style="fill:magenta;stroke:magenta;stroke-width:1" /> -->
<!-- 7x6_vert 5
<polygon transform="translate(0,0)" points="1,1 1,111 95,111 95,1" style="fill:magenta;stroke:magenta;stroke-width:1" /> -->

<!-- 8x6 6
<polygon transform="translate(0,0)" points="1,1 127,1 127,95 1,95" style="fill:magenta;stroke:magenta;stroke-width:1" /> -->
<!-- 8x6_vert 6
<polygon transform="translate(0,0)" points="1,1 1,127 95,127 95,1" style="fill:magenta;stroke:magenta;stroke-width:1" /> -->

<!-- 7x7 7
<polygon transform="translate(0,0)" points="1,1 111,1 111,111 1,111" style="fill:coral;stroke:coral;stroke-width:1" /> -->

<!-- 8x7 8
<polygon transform="translate(0,0)" points="1,1 127,1 127,111 1,111" style="fill:coral;stroke:coral;stroke-width:1" /> -->
<!-- 8x7_vert 8
<polygon transform="translate(0,0)" points="1,1 1,127 111,127 111,1" style="fill:coral;stroke:coral;stroke-width:1" /> -->

<!-- 8x8 9
<polygon transform="translate(0,0)" points="1,1 127,1 127,127 1,127" style="fill:teal;stroke:teal;stroke-width:1" /> -->

</g>
<!-- COPY_END -->

<!-- OTHERS -->

</svg>
